<?xml version="1.0" encoding="utf-8"?>
<!-- Generator: Adobe Illustrator 26.0.1, SVG Export Plug-In . SVG Version: 6.00 Build 0)  -->
<svg version="1.1" baseProfile="basic" xmlns="http://www.w3.org/2000/svg" xmlns:xlink="http://www.w3.org/1999/xlink" x="0px"
	 y="0px" width="400px" height="375px" viewBox="0 0 400 375" xml:space="preserve">
<g id="Bring_Forward">
	<g>
		<path d="M305.01,15.49l30.18,0.06c0,0,0,0,0,0c0.83,0,1.5-0.67,1.5-1.5c0-0.83-0.67-1.5-1.5-1.5l-30.18-0.06c0,0,0,0,0,0
			c-0.83,0-1.5,0.67-1.5,1.5C303.51,14.82,304.18,15.49,305.01,15.49z M335.2,39.84l-12.69-0.02v-4.6l2.66,0.01c0.84-0.04,1.45-0.61,1.71-0.86c0.6-0.57,0.72-1.41,0.36-2.04l-0.29-0.59
			l8.25,0.02c0,0,0,0,0,0c0.83,0,1.5-0.67,1.5-1.5c0-0.83-0.67-1.5-1.5-1.5l-9.76-0.02l-2.5-5c0.01-0.03,0-0.06,0.01-0.09
			l12.25,0.02c0,0,0,0,0,0c0.83,0,1.5-0.67,1.5-1.5c0-0.83-0.67-1.5-1.5-1.5l-30.18-0.06c0,0,0,0,0,0c-0.83,0-1.5,0.67-1.5,1.5
			c0,0.83,0.67,1.5,1.5,1.5l12.88,0.02L315,28.72l-9.99-0.02c0,0,0,0,0,0c-0.83,0-1.5,0.67-1.5,1.5c0,0.83,0.67,1.5,1.5,1.5
			l8.29,0.02l-0.23,0.4c-0.46,0.68-0.37,1.55,0.22,2.15c0.24,0.25,0.88,0.9,1.78,0.91l2.85,0.01v4.61l-12.9-0.02c0,0,0,0,0,0
			c-0.83,0-1.5,0.67-1.5,1.5c0,0.83,0.67,1.5,1.5,1.5l30.18,0.06c0,0,0,0,0,0c0.83,0,1.5-0.67,1.5-1.5
			C336.7,40.51,336.03,39.84,335.2,39.84z"/>
	</g>
</g>
<g id="Bring_to_Front">
	<path d="M378.38,39.86l-12.46-0.02v-7.97l2.47,0.02c0.18-0.01,0.35-0.06,0.51-0.11l9.47,0.02c0,0,0,0,0,0c0.83,0,1.5-0.67,1.5-1.5
		c0-0.83-0.67-1.5-1.5-1.5l-7.55-0.01c-0.02-0.18-0.07-0.36-0.14-0.53l-1.57-4.55l9.25,0.02c0,0,0,0,0,0c0.83,0,1.5-0.67,1.5-1.5
		c0-0.83-0.67-1.5-1.5-1.5l-10.29-0.02l-1.77-5.13c0,0,0,0,0,0l12.06,0.02c0,0,0,0,0,0c0.83,0,1.5-0.67,1.5-1.5
		c0-0.83-0.67-1.5-1.5-1.5l-14-0.03c-0.32-0.07-0.64-0.1-0.96-0.04c-0.15,0-0.31,0.01-0.45,0.04l-14.77-0.03c0,0,0,0,0,0
		c-0.83,0-1.5,0.67-1.5,1.5c0,0.83,0.67,1.5,1.5,1.5l12.64,0.02l-2.01,5.13l-10.63-0.02c0,0,0,0,0,0c-0.83,0-1.5,0.67-1.5,1.5
		c0,0.83,0.67,1.5,1.5,1.5l9.46,0.02l-1.69,4.32c-0.11,0.24-0.17,0.5-0.2,0.76l-7.56-0.01c0,0,0,0,0,0c-0.83,0-1.5,0.67-1.5,1.5
		c0,0.83,0.67,1.5,1.5,1.5l9.61,0.02c0.14,0.04,0.28,0.06,0.44,0.06l2.63,0.02v8l-12.67-0.02c0,0,0,0,0,0c-0.83,0-1.5,0.67-1.5,1.5
		c0,0.83,0.67,1.5,1.5,1.5l30.18,0.06c0,0,0,0,0,0c0.83,0,1.5-0.67,1.5-1.5C379.88,40.53,379.21,39.86,378.38,39.86z"/>
</g>
<g id="Send_to_Back">
	<path d="M239.13,39.81l-12.64-0.02l2.01-5.13l10.63,0.02c0,0,0,0,0,0c0.83,0,1.5-0.67,1.5-1.5c0-0.83-0.67-1.5-1.5-1.5l-9.46-0.02
		l1.7-4.32c0.11-0.24,0.17-0.5,0.2-0.75l7.56,0.01c0,0,0,0,0,0c0.83,0,1.5-0.67,1.5-1.5c0-0.83-0.67-1.5-1.5-1.5l-9.61-0.02
		c-0.14-0.04-0.28-0.06-0.44-0.06l-2.63-0.02v-8l12.67,0.02c0,0,0,0,0,0c0.83,0,1.5-0.67,1.5-1.5c0-0.83-0.67-1.5-1.5-1.5
		l-30.18-0.06c0,0,0,0,0,0c-0.83,0-1.5,0.67-1.5,1.5c0,0.83,0.67,1.5,1.5,1.5l12.46,0.02v7.97l-2.47-0.02
		c-0.19,0.01-0.35,0.06-0.51,0.11l-9.47-0.02c0,0,0,0,0,0c-0.83,0-1.5,0.67-1.5,1.5c0,0.83,0.67,1.5,1.5,1.5l7.55,0.01
		c0.02,0.18,0.07,0.36,0.14,0.53l1.57,4.55l-9.25-0.02c0,0,0,0,0,0c-0.83,0-1.5,0.67-1.5,1.5c0,0.83,0.67,1.5,1.5,1.5l10.29,0.02
		l1.77,5.13c0,0,0,0,0,0l-12.06-0.02c0,0,0,0,0,0c-0.83,0-1.5,0.67-1.5,1.5c0,0.83,0.67,1.5,1.5,1.5l13.92,0.03
		c0.2,0.05,0.4,0.08,0.6,0.08c0.15,0,0.29-0.01,0.44-0.04c0.16,0.01,0.31-0.01,0.45-0.04l14.77,0.03c0,0,0,0,0,0
		c0.83,0,1.5-0.67,1.5-1.5C240.63,40.49,239.96,39.81,239.13,39.81z"/>
</g>
<g id="Send_Backwards">
	<g>
		<path d="M286.6,39.84l-30.18-0.06c-0.8,0.02-1.5,0.67-1.5,1.5c0,0.83,0.67,1.5,1.5,1.5l30.18,0.06c0,0,0,0,0,0
			c0.83,0,1.5-0.67,1.5-1.5C288.1,40.51,287.43,39.84,286.6,39.84z M256.41,15.49l12.69,0.02v4.6l-2.66-0.01c-0.85,0.04-1.45,0.61-1.7,0.86c-0.6,0.57-0.73,1.41-0.36,2.04l0.29,0.59
			l-8.25-0.02c0,0,0,0,0,0c-0.83,0-1.5,0.67-1.5,1.5c0,0.83,0.67,1.5,1.5,1.5l9.76,0.02l2.5,5c-0.01,0.03,0,0.06-0.01,0.09
			l-12.25-0.02c0,0,0,0,0,0c-0.83,0-1.5,0.67-1.5,1.5c0,0.83,0.67,1.5,1.5,1.5l30.18,0.06c0,0,0,0,0,0c0.83,0,1.5-0.67,1.5-1.5
			c0-0.83-0.67-1.5-1.5-1.5l-12.88-0.02l2.89-5.08l9.99,0.02c0,0,0,0,0,0c0.83,0,1.5-0.67,1.5-1.5c0-0.83-0.67-1.5-1.5-1.5
			l-8.29-0.02l0.23-0.4c0.46-0.68,0.37-1.55-0.22-2.14c-0.24-0.25-0.88-0.91-1.78-0.91l-2.85-0.01v-4.61l12.89,0.02c0,0,0,0,0,0
			c0.83,0,1.5-0.67,1.5-1.5c0-0.83-0.67-1.5-1.5-1.5l-30.18-0.06c-0.79-0.02-1.5,0.67-1.5,1.5
			C254.91,14.82,255.58,15.49,256.41,15.49z"/>
	</g>
</g>
<g id="Equalize_Rects">
	<g>
		<path d="M150.92,10.76l-28-0.06c0,0,0,0,0,0c-0.8,0-1.44,0.65-1.44,1.44c0,0.8,0.64,1.45,1.44,1.45l28,0.06c0,0,0,0,0,0
			c0.8,0,1.44-0.64,1.44-1.44C152.36,11.41,151.71,10.76,150.92,10.76z M150.92,41.52l-28-0.06c0,0,0,0,0,0c-0.8,0-1.44,0.65-1.44,1.44c0,0.8,0.64,1.45,1.44,1.45l28,0.06c0,0,0,0,0,0
			c0.8,0,1.44-0.65,1.44-1.44C152.36,42.17,151.71,41.52,150.92,41.52z M156.49,12.11C156.49,12.11,156.49,12.11,156.49,12.11c-0.8,0-1.45,0.64-1.45,1.44l-0.06,28c0,0.8,0.64,1.45,1.44,1.45
			c0,0,0,0,0,0c0.8,0,1.44-0.65,1.44-1.44l0.06-28C157.93,12.76,157.29,12.11,156.49,12.11z M117.84,12.11C117.83,12.11,117.83,12.11,117.84,12.11c-0.8,0-1.45,0.64-1.45,1.44l-0.06,28c0,0.8,0.64,1.45,1.44,1.45
			c0,0,0,0,0,0c0.8,0,1.44-0.65,1.44-1.44l0.06-28C119.28,12.76,118.63,12.11,117.84,12.11z M149.19,39.12c0.98,0,1.78-0.8,1.78-1.78V17.46c0-0.98-0.8-1.78-1.78-1.78h-8.76c-0.98,0-1.78,0.8-1.78,1.78v19.88
			c0,0.98,0.8,1.78,1.78,1.78H149.19z M124.69,39.12h8.76c0.98,0,1.78-0.8,1.78-1.78V17.46c0-0.98-0.8-1.78-1.78-1.78h-8.76c-0.98,0-1.78,0.8-1.78,1.78v19.88
			C122.91,38.32,123.71,39.12,124.69,39.12z M126.46,19.23h5.2v16.33h-5.2V19.23z"/>
	</g>
</g>
<g id="Equalize_Heigths">
	<g>
		<path d="M66.56,13.81l30.18,0.06c0,0,0,0,0,0c0.83,0,1.5-0.67,1.5-1.5c0-0.83-0.67-1.5-1.5-1.5l-30.18-0.06c0,0,0,0,0,0
			c-0.83,0-1.5,0.67-1.5,1.5C65.06,13.13,65.73,13.81,66.56,13.81z"/>
		<path d="M96.75,41.62l-30.18-0.06c-0.86-0.01-1.5,0.67-1.5,1.5c0,0.83,0.67,1.5,1.5,1.5l30.18,0.06c0,0,0,0,0,0
			c0.83,0,1.5-0.67,1.5-1.5C98.24,42.29,97.57,41.62,96.75,41.62z"/>
		<path d="M94.75,15.5H82.34c-1.17,0-2.12,0.95-2.12,2.12V37.5c0,1.17,0.95,2.12,2.12,2.12h12.42c1.17,0,2.12-0.95,2.12-2.12V17.61
			C96.87,16.45,95.92,15.5,94.75,15.5z"/>
		<path d="M67.79,15.7c-0.83,0-1.5,0.67-1.5,1.5V38c0,0.83,0.67,1.5,1.5,1.5h9.25c0.83,0,1.5-0.67,1.5-1.5V17.2
			c0-0.83-0.67-1.5-1.5-1.5H67.79z M75.54,36.5h-6.25V18.7h6.25V36.5z"/>
	</g>
</g>
<g id="Equalize_Widths">
	<g>
		<path d="M17.49,11.12C17.49,11.12,17.49,11.12,17.49,11.12c-0.83,0-1.5,0.67-1.5,1.5L15.93,42.8c0,0.83,0.67,1.5,1.5,1.5
			c0,0,0,0,0,0c0.83,0,1.5-0.67,1.5-1.5l0.06-30.18C18.99,11.8,18.32,11.12,17.49,11.12z"/>
		<path d="M48.25,11.12C48.24,11.12,48.24,11.12,48.25,11.12c-0.83,0-1.5,0.67-1.5,1.5L46.69,42.8c0,0.83,0.67,1.5,1.5,1.5
			c0,0,0,0,0,0c0.83,0,1.5-0.67,1.5-1.5l0.06-30.18C49.74,11.8,49.07,11.12,48.25,11.12z"/>
		<path d="M42.62,12.5H22.74c-1.17,0-2.12,0.95-2.12,2.12v12.42c0,1.17,0.95,2.12,2.12,2.12h19.88c1.17,0,2.12-0.95,2.12-2.12V14.61
			C44.74,13.45,43.79,12.5,42.62,12.5z"/>
		<path d="M43.12,30.83H22.32c-0.83,0-1.5,0.67-1.5,1.5v9.25c0,0.83,0.67,1.5,1.5,1.5h20.81c0.83,0,1.5-0.67,1.5-1.5v-9.25
			C44.62,31.5,43.95,30.83,43.12,30.83z M41.62,40.08H23.82v-6.25h17.81V40.08z"/>
	</g>
</g>
<g id="Spacing-Horizontal">
	<g>
		<path d="M134.47,337.97C134.47,337.97,134.47,337.97,134.47,337.97c0.83,0,1.5-0.67,1.51-1.49l0.06-12.44
			c0-0.83-0.66-1.5-1.49-1.51c0,0,0,0-0.01,0c-0.83,0-1.5,0.67-1.5,1.49l-0.06,12.44C132.97,337.29,133.64,337.96,134.47,337.97z"/>
		<path d="M127.6,322.53C127.59,322.53,127.59,322.53,127.6,322.53c-0.83,0-1.5,0.67-1.51,1.49l-0.06,12.44
			c0,0.83,0.66,1.5,1.49,1.51c0,0,0,0,0.01,0c0.83,0,1.5-0.67,1.5-1.49l0.06-12.44C129.09,323.21,128.42,322.53,127.6,322.53z"/>
		<path d="M148.69,340.49h-14.18c-0.83,0-1.5,0.67-1.5,1.5v8.76c0,0.83,0.67,1.5,1.5,1.5h14.18c0.83,0,1.5-0.67,1.5-1.5v-8.76
			C150.19,341.16,149.51,340.49,148.69,340.49z"/>
		<path d="M127.59,340.49h-9.25c-0.83,0-1.5,0.67-1.5,1.5v20.81c0,0.83,0.67,1.5,1.5,1.5h9.25c0.83,0,1.5-0.67,1.5-1.5v-20.81
			C129.09,341.16,128.42,340.49,127.59,340.49z M126.09,361.3h-6.25v-17.81h6.25V361.3z"/>
	</g>
</g>
<g id="Spacing-Verticle">
	<g>
		<path d="M37.62,340.41l-12.44-0.06c0,0,0,0-0.01,0c-0.83,0-1.5,0.67-1.5,1.49c0,0.83,0.66,1.5,1.49,1.51l12.44,0.06
			c0,0,0,0,0.01,0c0.83,0,1.5-0.67,1.5-1.49C39.12,341.09,38.45,340.42,37.62,340.41z"/>
		<path d="M37.62,347.36l-12.44-0.06c0,0,0,0-0.01,0c-0.83,0-1.5,0.67-1.5,1.49c0,0.83,0.66,1.5,1.49,1.51l12.44,0.06
			c0,0,0,0,0.01,0c0.83,0,1.5-0.67,1.5-1.49C39.12,348.04,38.45,347.36,37.62,347.36z"/>
		<path d="M43.14,343.38h8.76c0.83,0,1.5-0.67,1.5-1.5V327.7c0-0.83-0.67-1.5-1.5-1.5h-8.76c-0.83,0-1.5,0.67-1.5,1.5v14.18
			C41.64,342.71,42.31,343.38,43.14,343.38z"/>
		<path d="M63.94,347.3H43.14c-0.83,0-1.5,0.67-1.5,1.5v9.25c0,0.83,0.67,1.5,1.5,1.5h20.81c0.83,0,1.5-0.67,1.5-1.5v-9.25
			C65.44,347.97,64.77,347.3,63.94,347.3z M62.44,356.55H44.64v-6.25h17.81V356.55z"/>
	</g>
</g>
<g id="Distribute-Right">
	<g>
		<path d="M360.6,239.23c0-0.83-0.67-1.5-1.5-1.5c0,0,0,0,0,0c-0.83,0-1.5,0.67-1.5,1.5l-0.01,3.19h-7.74c-0.83,0-1.5,0.67-1.5,1.5
			v20.81c0,0.83,0.67,1.5,1.5,1.5h7.7l-0.01,3.19c0,0.83,0.67,1.5,1.5,1.5c0,0,0,0,0,0c0.83,0,1.5-0.67,1.5-1.5l0.01-4.31
			c0.03-0.12,0.06-0.25,0.06-0.38v-20.81c0-0.05-0.01-0.1-0.01-0.14L360.6,239.23z M351.36,263.22v-17.81h6.24l-0.03,17.81H351.36z"
			/>
		<path d="M375.03,247.27c0-0.26-0.08-0.51-0.2-0.73l0.01-7.27c0-0.83-0.67-1.5-1.5-1.5c0,0,0,0,0,0c-0.83,0-1.5,0.67-1.5,1.5
			l-0.01,6.5h-7.06c-0.83,0-1.5,0.67-1.5,1.5v14.18c0,0.83,0.67,1.5,1.5,1.5h7.03l-0.01,6.5c0,0.83,0.67,1.5,1.5,1.5c0,0,0,0,0,0
			c0.83,0,1.5-0.67,1.5-1.5l0.01-7.22c0.14-0.23,0.23-0.5,0.23-0.78V247.27z"/>
	</g>
</g>
<g id="Distribute-Horiz-Center">
	<g>
		<path d="M306.98,243.44h-2.89l-0.01-6.64c0-0.83-0.67-1.5-1.5-1.5c0,0,0,0,0,0c-0.83,0-1.5,0.67-1.5,1.5l0.01,6.63h-2.86
			c-0.83,0-1.5,0.67-1.5,1.5v14.18c0,0.83,0.67,1.5,1.5,1.5h2.89l0.01,6.64c0,0.83,0.67,1.5,1.5,1.5c0,0,0,0,0,0
			c0.83,0,1.5-0.67,1.5-1.5l-0.01-6.63h2.86c0.83,0,1.5-0.67,1.5-1.5v-14.18C308.48,244.11,307.81,243.44,306.98,243.44z"/>
		<rect x="285.18" y="243.07" fill="#FFFFFF" width="6.25" height="17.81"/>
		<path d="M292.93,240.07h-3.21l-0.01-3.27c0-0.83-0.67-1.5-1.5-1.5c0,0,0,0,0,0c-0.83,0-1.5,0.67-1.5,1.5l0.01,3.26h-3.05
			c-0.83,0-1.5,0.67-1.5,1.5v20.81c0,0.83,0.67,1.5,1.5,1.5h3.09l0.01,3.38c0,0.83,0.67,1.5,1.5,1.5c0,0,0,0,0,0
			c0.83,0,1.5-0.67,1.5-1.5l-0.01-3.37h3.16c0.83,0,1.5-0.67,1.5-1.5v-20.81C294.43,240.74,293.76,240.07,292.93,240.07z
			 M291.43,260.87h-6.25v-17.81h6.25V260.87z"/>
	</g>
</g>
<g id="Distribute-Left">
	<g>
		<path d="M240.23,243.47h-7.06l-0.01-6.5c0-0.83-0.67-1.5-1.5-1.5c0,0,0,0,0,0c-0.83,0-1.5,0.67-1.5,1.5l0.01,7.27
			c-0.12,0.22-0.2,0.46-0.2,0.73v14.18c0,0.29,0.08,0.55,0.23,0.78l0.01,7.22c0,0.83,0.67,1.5,1.5,1.5c0,0,0,0,0,0
			c0.83,0,1.5-0.67,1.5-1.5l-0.01-6.5h7.03c0.83,0,1.5-0.67,1.5-1.5v-14.18C241.73,244.15,241.06,243.47,240.23,243.47z"/>
		<path d="M225.57,240.12h-7.74l-0.01-3.19c0-0.83-0.67-1.5-1.5-1.5c0,0,0,0,0,0c-0.83,0-1.5,0.67-1.5,1.5l0.01,4.54
			c0,0.05-0.01,0.09-0.01,0.14v20.81c0,0.13,0.02,0.26,0.06,0.38l0.01,4.31c0,0.83,0.67,1.5,1.5,1.5c0,0,0,0,0,0
			c0.83,0,1.5-0.67,1.5-1.5l-0.01-3.19h7.7c0.83,0,1.5-0.67,1.5-1.5v-20.81C227.07,240.8,226.4,240.12,225.57,240.12z
			 M224.07,260.93h-6.2l-0.03-17.81h6.24V260.93z"/>
	</g>
</g>
<g id="Distribute-Bottom">
	<g>
		<path d="M85.43,262.19C85.43,262.19,85.43,262.19,85.43,262.19l-3.19,0.01v-8.2c0-0.83-0.67-1.5-1.5-1.5H59.93
			c-0.83,0-1.5,0.67-1.5,1.5v8.25l-3.19,0.01c-0.83,0-1.5,0.67-1.5,1.5c0,0.83,0.67,1.5,1.5,1.5c0,0,0,0,0,0l30.18-0.06
			c0.83,0,1.5-0.67,1.5-1.5C86.93,262.86,86.26,262.19,85.43,262.19z M61.43,255.49h17.81v6.25H61.43V255.49z"/>
		<path d="M55.28,249.98C55.28,249.98,55.29,249.98,55.28,249.98l30.19-0.06c0.83,0,1.5-0.67,1.5-1.5c0-0.83-0.67-1.5-1.5-1.5
			c0,0,0,0,0,0l-6.5,0.01v-7.32c0-0.83-0.67-1.5-1.5-1.5H63.28c-0.83,0-1.5,0.67-1.5,1.5v7.35l-6.5,0.01c-0.83,0-1.5,0.67-1.5,1.5
			C53.78,249.31,54.46,249.98,55.28,249.98z"/>
	</g>
</g>
<g id="Distribute-Vert-Center">
	<g>
		<path d="M127.24,256.98C127.24,256.98,127.24,256.98,127.24,256.98l-3.38,0.01v-3.16c0-0.83-0.67-1.5-1.5-1.5h-20.81
			c-0.83,0-1.5,0.67-1.5,1.5v3.21l-3.27,0.01c-0.83,0-1.5,0.67-1.5,1.5c0,0.83,0.67,1.5,1.5,1.5c0,0,0,0,0,0l3.26-0.01v3.05
			c0,0.83,0.67,1.5,1.5,1.5h20.81c0.83,0,1.5-0.67,1.5-1.5v-3.09l3.38-0.01c0.83,0,1.5-0.67,1.5-1.5
			C128.74,257.65,128.07,256.98,127.24,256.98z M103.06,261.58v-6.25h17.81v6.25H103.06z"/>
		<path d="M96.8,245.68C96.8,245.68,96.8,245.68,96.8,245.68l6.63-0.01v2.86c0,0.83,0.67,1.5,1.5,1.5h14.18c0.83,0,1.5-0.67,1.5-1.5
			v-2.89l6.64-0.01c0.83,0,1.5-0.67,1.5-1.5c0-0.83-0.67-1.5-1.5-1.5c0,0,0,0,0,0l-6.63,0.01v-2.86c0-0.83-0.67-1.5-1.5-1.5h-14.18
			c-0.83,0-1.5,0.67-1.5,1.5v2.89l-6.64,0.01c-0.83,0-1.5,0.67-1.5,1.5C95.3,245.01,95.97,245.68,96.8,245.68z"/>
		<rect x="103.06" y="255.33" fill="#FFFFFF" width="17.81" height="6.25"/>
	</g>
</g>
<g id="Distribute-Top">
	<g>
		<path d="M46.49,252.82l-4.31-0.01c-0.12-0.03-0.25-0.06-0.38-0.06H21c-0.05,0-0.1,0.01-0.14,0.01l-4.54-0.01c0,0,0,0,0,0
			c-0.83,0-1.5,0.67-1.5,1.5c0,0.83,0.67,1.5,1.5,1.5l3.19,0.01v7.74c0,0.83,0.67,1.5,1.5,1.5H41.8c0.83,0,1.5-0.67,1.5-1.5v-7.7
			l3.19,0.01c0,0,0,0,0,0c0.83,0,1.5-0.67,1.5-1.5C47.99,253.5,47.32,252.82,46.49,252.82z M40.3,262.01H22.5v-6.24l17.81,0.03
			V262.01z"/>
		<path d="M16.34,241.23l6.5,0.01v7.35c0,0.83,0.67,1.5,1.5,1.5h14.18c0.83,0,1.5-0.67,1.5-1.5v-7.32l6.5,0.01c0,0,0,0,0,0
			c0.83,0,1.5-0.67,1.5-1.5c0-0.83-0.67-1.5-1.5-1.5l-30.18-0.06c-0.8,0.01-1.5,0.67-1.5,1.5
			C14.84,240.56,15.51,241.23,16.34,241.23z"/>
	</g>
</g>
<g id="Align_To_Card_Right">
	<g>
		<polygon fill="#FFFFFF" points="376.44,350.53 376.44,337.53 382.19,342.2 382.19,330.53 355.19,330.53 355.19,357.53
			382.19,357.53 382.19,345.86 		"/>
		<path d="M383.69,327.53h-30c-0.83,0-1.5,0.67-1.5,1.5v30c0,0.83,0.67,1.5,1.5,1.5h30c0.83,0,1.5-0.67,1.5-1.5v-30
			C385.19,328.2,384.52,327.53,383.69,327.53z M355.19,357.53v-27h27v11.67l-5.75-4.67v13l5.75-4.67v11.67H355.19z"/>
	</g>
</g>
<g id="Align_To_Card_Left">
	<g>
		<polygon fill="#FFFFFF" points="307.2,341.12 312.95,336.45 312.95,349.45 307.2,344.78 307.2,356.45 334.2,356.45 334.2,329.45
			307.2,329.45 		"/>
		<path d="M335.7,326.45h-30c-0.83,0-1.5,0.67-1.5,1.5v30c0,0.83,0.67,1.5,1.5,1.5h30c0.83,0,1.5-0.67,1.5-1.5v-30
			C337.2,327.12,336.53,326.45,335.7,326.45z M334.2,356.45h-27v-11.67l5.75,4.67v-13l-5.75,4.67v-11.67h27V356.45z"/>
	</g>
</g>
<g id="Align-To-Stack-Horiz-Center">
	<g>
		<polygon fill="#FFFFFF" points="340.19,303.05 334.44,307.72 334.44,294.72 340.19,299.39 340.19,287.72 328.21,287.72
			328.21,314.71 340.19,314.71 		"/>
		<polygon fill="#FFFFFF" points="343.19,287.72 343.19,299.39 348.94,294.72 348.94,307.72 343.19,303.05 343.19,314.71
			355.21,314.71 355.21,303.04 355.21,299.39 355.21,287.72 		"/>
		<path d="M356.71,284.72h0.04C356.73,284.72,356.72,284.71,356.71,284.72H327.3c-0.83,0-1.5,0.67-1.5,1.5v30
			c0,0.83,0.67,1.5,1.5,1.5h14.38h15.02c0.83,0,1.5-0.67,1.5-1.5v-30C358.21,285.39,357.54,284.72,356.71,284.72z M328.21,287.72
			h11.98v11.67l-5.75-4.67v13l5.75-4.67v11.67h-11.98V287.72z M355.21,303.04v11.67h-12.02v-11.67l5.75,4.67v-13l-5.75,4.67v-11.67
			h12.02v11.67V303.04z"/>
	</g>
</g>
<g id="Align-To-Stack-Vert-Center">
	<g>
		<polygon fill="#FFFFFF" points="259.56,302.72 264.22,308.47 251.25,308.47 255.92,302.72 244.27,302.72 244.27,314.7
			271.2,314.7 271.2,302.72 		"/>
		<polygon fill="#FFFFFF" points="244.27,299.72 255.92,299.72 251.25,293.97 264.22,293.97 259.56,299.72 271.2,299.72
			271.2,287.7 259.56,287.7 255.91,287.7 244.27,287.7 		"/>
		<path d="M241.87,286.24v-0.04C241.87,286.22,241.87,286.23,241.87,286.24v29.92c0,0.84,0.66,1.53,1.47,1.53h29.46
			c0.81,0,1.47-0.68,1.47-1.53v-14.63v-15.28c0-0.84-0.66-1.53-1.47-1.53h-29.46C242.53,284.72,241.87,285.4,241.87,286.24z
			 M244.27,314.7v-11.98h11.64l-4.66,5.75h12.97l-4.66-5.75h11.64v11.98H244.27z M259.56,287.7h11.64v12.02h-11.64l4.66-5.75h-12.97
			l4.66,5.75h-11.64V287.7h11.64H259.56z"/>
	</g>
</g>
<g id="Align-To-Stack-Center">
	<g>
		<polygon points="292.96,307.7 300.22,301.22 293.71,308.47 298.71,308.47 298.71,314.69 301.71,314.69 301.71,308.47
			306.68,308.47 300.22,301.22 307.46,307.7 307.46,302.72 313.68,302.72 313.68,299.72 307.46,299.72 307.46,294.7 300.22,301.22
			306.68,293.97 301.71,293.97 301.71,287.72 298.71,287.72 298.71,293.97 293.71,293.97 300.22,301.22 292.96,294.7 292.96,299.72
			286.76,299.72 286.76,302.72 292.96,302.72 		"/>
		<path d="M315.28,284.73h-29.46c-0.81,0-1.47,0.68-1.47,1.53v-0.04c0,0.01,0,0.03,0,0.04l0,29.92c0,0.84,0.66,1.53,1.47,1.53h29.46
			c0.81,0,1.47-0.68,1.47-1.53v-14.63v-15.28C316.75,285.42,316.1,284.73,315.28,284.73z M286.76,314.71v-12v-3v-12h11.95h3h11.97
			v12v3v12H286.76z"/>
	</g>
</g>
<g id="Align_To_Card_Bottom">
	<g>
		<polygon fill="#FFFFFF" points="258.01,355.01 269.68,355.01 265.01,349.26 278.01,349.26 273.34,355.01 285.01,355.01
			285.01,328.01 258.01,328.01 		"/>
		<path d="M286.51,325.01h-30c-0.83,0-1.5,0.67-1.5,1.5v30c0,0.83,0.67,1.5,1.5,1.5h30c0.83,0,1.5-0.67,1.5-1.5v-30
			C288.01,325.68,287.34,325.01,286.51,325.01z M285.01,355.01h-11.67l4.67-5.75h-13l4.67,5.75h-11.67v-27h27V355.01z"/>
	</g>
</g>
<g id="Align_To_Card_Top">
	<g>
		<polygon fill="#FFFFFF" points="232.36,335.74 219.36,335.74 224.03,329.99 212.36,329.99 212.36,356.99 239.36,356.99
			239.36,329.99 227.68,329.99 		"/>
		<path d="M240.86,326.99h-30c-0.83,0-1.5,0.67-1.5,1.5v30c0,0.83,0.67,1.5,1.5,1.5h30c0.83,0,1.5-0.67,1.5-1.5v-30
			C242.36,327.66,241.69,326.99,240.86,326.99z M239.36,356.99h-27v-27h11.67l-4.67,5.75h13l-4.67-5.75h11.67V356.99z"/>
	</g>
</g>
<g id="Align-Bottom">
	<g>
		<rect x="349.97" y="107.13" fill="none" width="6.25" height="17.81"/>
		<path d="M375.43,129.76C375.43,129.76,375.43,129.76,375.43,129.76l-30.19,0.06c-0.83,0-1.5,0.67-1.5,1.5c0,0.83,0.67,1.5,1.5,1.5
			c0,0,0,0,0,0l30.18-0.06c0.83,0,1.5-0.67,1.5-1.5C376.93,130.43,376.26,129.76,375.43,129.76z"/>
		<path d="M363.02,127.93h8.76c0.83,0,1.5-0.67,1.5-1.5v-14.18c0-0.83-0.67-1.5-1.5-1.5h-8.76c-0.83,0-1.5,0.67-1.5,1.5v14.18
			C361.52,127.26,362.19,127.93,363.02,127.93z"/>
		<path d="M348.47,127.93h9.25c0.83,0,1.5-0.67,1.5-1.5v-20.81c0-0.83-0.67-1.5-1.5-1.5h-9.25c-0.83,0-1.5,0.67-1.5,1.5v20.81
			C346.97,127.26,347.64,127.93,348.47,127.93z M349.97,107.13h6.25v17.81h-6.25V107.13z"/>
	</g>
</g>
<g id="Align-Middle">
	<g>
		<path d="M309.13,115.34C309.13,115.34,309.12,115.34,309.13,115.34l-2.36,0v-5.54c0-0.83-0.67-1.5-1.5-1.5h-8.76
			c-0.83,0-1.5,0.67-1.5,1.5v5.56l-2.3,0v-8.93c0-0.83-0.67-1.5-1.5-1.5h-9.25c-0.83,0-1.5,0.67-1.5,1.5v8.96l-1.78,0
			c-0.83,0-1.5,0.67-1.5,1.5c0,0.83,0.67,1.5,1.5,1.5c0,0,0,0,0,0l1.78,0v8.85c0,0.83,0.67,1.5,1.5,1.5h9.25
			c0.83,0,1.5-0.67,1.5-1.5v-8.87l2.3,0v5.62c0,0.83,0.67,1.5,1.5,1.5h8.76c0.83,0,1.5-0.67,1.5-1.5v-5.64l2.36,0
			c0.83,0,1.5-0.67,1.5-1.5C310.62,116.01,309.95,115.34,309.13,115.34z M283.46,125.74v-17.81h6.25v17.81H283.46z"/>
		<rect x="283.46" y="107.93" fill="#FFFFFF" width="6.25" height="17.81"/>
	</g>
</g>
<g id="Align-Top">
	<g>
		<path d="M242.07,105.6C242.07,105.6,242.07,105.6,242.07,105.6l-30.19-0.06c-0.83,0-1.5-0.67-1.5-1.5c0-0.83,0.67-1.5,1.5-1.5
			c0,0,0,0,0,0l30.18,0.06c0.83,0,1.5,0.67,1.5,1.5C243.57,104.93,242.9,105.6,242.07,105.6z"/>
	</g>
	<path d="M238.41,107.43h-8.76c-0.83,0-1.5,0.67-1.5,1.5v14.18c0,0.83,0.67,1.5,1.5,1.5h8.76c0.83,0,1.5-0.67,1.5-1.5v-14.18
		C239.91,108.1,239.24,107.43,238.41,107.43z"/>
	<g>
		<path d="M224.36,131.24h-9.25c-0.83,0-1.5-0.67-1.5-1.5v-20.81c0-0.83,0.67-1.5,1.5-1.5h9.25c0.83,0,1.5,0.67,1.5,1.5v20.81
			C225.86,130.57,225.19,131.24,224.36,131.24z M216.6,128.24h6.25v-17.81h-6.25V128.24z"/>
	</g>
</g>
<g id="Align-Right">
	<g>
		<rect x="98.93" y="138.39" fill="none" width="17.81" height="6.25"/>
		<path d="M124.57,119.18c0-0.83-0.67-1.5-1.5-1.5c0,0,0,0,0,0c-0.83,0-1.5,0.67-1.5,1.5l0.06,30.18c0,0.83,0.67,1.5,1.5,1.5
			c0,0,0,0,0,0c0.83,0,1.5-0.67,1.5-1.5L124.57,119.18z"/>
		<path d="M118.24,121.34h-14.18c-0.83,0-1.5,0.67-1.5,1.5v8.76c0,0.83,0.67,1.5,1.5,1.5h14.18c0.83,0,1.5-0.67,1.5-1.5v-8.76
			C119.74,122.01,119.07,121.34,118.24,121.34z"/>
		<path d="M118.24,135.39H97.43c-0.83,0-1.5,0.67-1.5,1.5v9.25c0,0.83,0.67,1.5,1.5,1.5h20.81c0.83,0,1.5-0.67,1.5-1.5v-9.25
			C119.74,136.07,119.07,135.39,118.24,135.39z M116.74,144.65H98.93v-6.25h17.81V144.65z"/>
	</g>
</g>
<g id="Align-Center">
	<g>
		<rect x="61.47" y="139.5" fill="#FFFFFF" width="17.81" height="6.25"/>
		<path d="M80.78,136.5h-8.93l0-2.3h5.56c0.83,0,1.5-0.67,1.5-1.5v-8.76c0-0.83-0.67-1.5-1.5-1.5h-5.54l0-2.36
			c0-0.83-0.67-1.5-1.5-1.5c0,0,0,0,0,0c-0.83,0-1.5,0.67-1.5,1.5l0,2.36h-5.64c-0.83,0-1.5,0.67-1.5,1.5v8.76
			c0,0.83,0.67,1.5,1.5,1.5h5.62l0,2.3h-8.87c-0.83,0-1.5,0.67-1.5,1.5v9.25c0,0.83,0.67,1.5,1.5,1.5h8.85l0,1.78
			c0,0.83,0.67,1.5,1.5,1.5c0,0,0,0,0,0c0.83,0,1.5-0.67,1.5-1.5l0-1.78h8.96c0.83,0,1.5-0.67,1.5-1.5V138
			C82.28,137.18,81.61,136.5,80.78,136.5z M79.28,145.76H61.47v-6.25h17.81V145.76z"/>
	</g>
</g>
<g id="Align-Left">
	<g>
		<rect x="25.83" y="138.39" fill="none" width="17.81" height="6.25"/>
		<path d="M19.5,117.68C19.5,117.68,19.5,117.68,19.5,117.68c-0.83,0-1.5,0.67-1.5,1.5l-0.06,30.18c0,0.83,0.67,1.5,1.5,1.5
			c0,0,0,0,0,0c0.83,0,1.5-0.67,1.5-1.5L21,119.18C21,118.36,20.33,117.68,19.5,117.68z"/>
		<path d="M24.33,133.1h14.18c0.83,0,1.5-0.67,1.5-1.5v-8.76c0-0.83-0.67-1.5-1.5-1.5H24.33c-0.83,0-1.5,0.67-1.5,1.5v8.76
			C22.83,132.43,23.5,133.1,24.33,133.1z"/>
		<path d="M45.13,135.39H24.33c-0.83,0-1.5,0.67-1.5,1.5v9.25c0,0.83,0.67,1.5,1.5,1.5h20.81c0.83,0,1.5-0.67,1.5-1.5v-9.25
			C46.63,136.07,45.96,135.39,45.13,135.39z M43.63,144.65H25.83v-6.25h17.81V144.65z"/>
	</g>
</g>
</svg>
